<?xml version="1.0" encoding="utf-8"?>
<!-- Generator: Adobe Illustrator 25.0.0, SVG Export Plug-In . SVG Version: 6.00 Build 0)  -->
<svg version="1.1" id="Original_copy" xmlns="http://www.w3.org/2000/svg" xmlns:xlink="http://www.w3.org/1999/xlink" x="0px"
	 y="0px" viewBox="0 0 2000 2000" style="enable-background:new 0 0 2000 2000;" xml:space="preserve">
<style type="text/css">
	.st0{fill:#111111;}
	@media (prefers-color-scheme: dark) {
		.st0{fill:#eeeeee;}
	}
</style>
<path class="st0" d="M468.4,1966c-44.1,0-79.8-35.7-79.7-79.8c0-21.1,8.4-41.4,23.3-56.3l0,0c31.5-32.3,61.3-66.3,89.2-101.8
	c47.5-60.8,64.8-97.3,71.2-116c-4.2-0.4-9.3-0.6-15.5-0.6c-75.8,0-141.6-16.7-195.3-49.5c-45.8-27.9-82.1-67-107.9-116.1
	c-27.4-52-42.4-115.9-42.4-180.1s15.1-128.1,42.4-180.1c25.8-49,62.1-88.1,107.9-116.1c53.8-32.8,119.5-49.5,195.3-49.5H743v-97.5
	c0-8,1.1-198.3,97-390.2C930.9,250.7,1124.8,34,1531.8,34c44.1,0,79.7,35.8,79.7,79.8c0,21.1-8.4,41.4-23.3,56.3
	c-31.5,32.3-61.3,66.2-89.2,101.7c-47.5,60.8-64.9,97.3-71.2,116c4.2,0.4,9.3,0.6,15.5,0.6c75.8,0,141.6,16.7,195.3,49.5
	c45.8,27.9,82.1,67,107.9,116.1c27.4,52,42.4,115.9,42.4,180.1s-15.1,128.1-42.4,180.1c-25.8,49-62.1,88.1-107.9,116.1
	c-53.8,32.8-119.5,49.5-195.3,49.5H1257v97.5c0,8-1,198.3-96.9,390.2C1069.2,1749.3,875.4,1966,468.4,1966z M556.9,1079.8
	c-80.6,0-133.7,26.3-162.1,80.4c-15.3,29.1-24,67.6-24,105.7s8.8,76.7,24,105.7c28.5,54.2,81.5,80.5,162.1,80.5
	c38.8,0,70.6,5.9,97.2,18c33.2,15.1,57.7,39.8,70.9,71.4c10.3,24.9,13.1,52.9,8.3,83.2c-3.4,21.5-10.5,44-21.7,68.6
	c-12.6,27.9-30.8,58.7-54.1,92c163.2-40.2,283.9-136.9,359.9-289.1c79.3-158.6,80.1-317.3,80.1-318.8V1000
	c0-44.1,35.7-79.8,79.8-79.8l0,0h265.9c80.6,0,133.7-26.3,162.1-80.4c15.3-29.1,24-67.6,24-105.7c0-38.1-8.8-76.7-24-105.7
	c-28.5-54.1-81.4-80.4-162.1-80.4c-38.8,0-70.6-5.9-97.2-18c-33.2-15.1-57.7-39.8-70.9-71.4c-10.3-24.9-13.1-52.9-8.3-83.2
	c3.4-21.5,10.5-44,21.7-68.6c12.7-27.9,30.8-58.7,54.1-91.9c-163.2,40.2-283.8,136.9-359.9,289.1c-79.3,158.6-80.2,317.3-80.2,318.8
	V1000c0,44.1-35.7,79.8-79.8,79.8c0,0,0,0,0,0H556.9z"/>
<path class="st0" d="M877.6,1328.9c-69-0.1-124.9-56.1-124.8-125.2c0-22.6,6.2-44.7,17.8-64.1l244.6-407.8
	c35.7-59,112.6-77.9,171.6-42.2c58.7,35.5,77.8,111.8,42.7,170.8l-244.6,407.8C962.3,1305.9,921.5,1328.9,877.6,1328.9z"/>
</svg>
