<svg id="Original_copy" data-name="Original copy" xmlns="http://www.w3.org/2000/svg" xmlns:xlink="http://www.w3.org/1999/xlink" viewBox="0 0 2000 2000"><defs><style>.cls-1{fill:white;}.cls-2{fill:white;}</style></defs><path class="cls-1" d="M562.53,1795a65.64,65.64,0,0,1-46.45-112h0a1041.72,1041.72,0,0,0,73.42-83.74c39.08-50.06,53.36-80.1,58.58-95.45-3.44-.32-7.65-.53-12.76-.53-62.41,0-116.49-13.71-160.73-40.75-37.69-23-67.58-55.17-88.81-95.52-22.51-42.77-34.91-95.39-34.91-148.18s12.4-105.42,34.91-148.18c21.23-40.35,51.12-72.49,88.81-95.53,44.24-27,98.32-40.74,160.73-40.74H788.49V854.13c0-6.59.9-163.18,79.86-321.1,74.82-149.65,234.32-328,569.26-328A65.64,65.64,0,0,1,1484,317.06a1043.37,1043.37,0,0,0-73.44,83.71c-39.08,50-53.39,80.08-58.63,95.44,3.43.32,7.63.53,12.72.53,62.41,0,116.49,13.71,160.73,40.75,37.7,23,67.58,55.17,88.81,95.52,22.51,42.77,34.91,95.39,34.91,148.18s-12.4,105.42-34.91,148.18c-21.23,40.35-51.11,72.49-88.81,95.53-44.24,27-98.32,40.74-160.73,40.74H1211.51v80.23c0,6.57-.86,163.17-79.78,321.09C1056.94,1616.61,897.48,1795,562.53,1795Zm72.79-729.36c-66.32,0-110,21.63-133.37,66.13-12.58,23.91-19.79,55.63-19.79,87s7.21,63.13,19.79,87C525.37,1350.34,569,1372,635.32,1372c31.9,0,58.08,4.85,80,14.81,27.35,12.42,47.52,32.75,58.31,58.79,8.48,20.47,10.77,43.51,6.81,68.47-2.81,17.71-8.64,36.17-17.83,56.43-10.41,23-25.35,48.33-44.53,75.68,134.31-33.05,233.6-112.67,296.17-237.88,65.22-130.5,65.94-261.08,65.94-262.38V1000a65.64,65.64,0,0,1,65.64-65.64h218.81c66.32,0,110-21.63,133.37-66.13,12.58-23.91,19.79-55.63,19.79-87s-7.21-63.13-19.79-87c-23.42-44.5-67-66.13-133.37-66.13-31.89,0-58.07-4.85-80-14.81-27.36-12.42-47.52-32.75-58.31-58.79-8.48-20.47-10.77-43.51-6.8-68.48,2.82-17.71,8.66-36.17,17.86-56.43,10.42-22.95,25.36-48.31,44.54-75.66-134.28,33.07-233.57,112.68-296.17,237.88-65.25,130.5-66,261.08-66,262.39V1000a65.64,65.64,0,0,1-65.64,65.64Zm25.8,440.7Z"/><path class="cls-2" d="M899.25,1270.64a102.87,102.87,0,0,1-88.09-155.76l201.3-335.56a102.84,102.84,0,0,1,176.38,105.8l-201.3,335.56A102.8,102.8,0,0,1,899.25,1270.64Z"/></svg>
